<svg xmlns="http://www.w3.org/2000/svg" xmlns:xlink="http://www.w3.org/1999/xlink" width="500" zoomAndPan="magnify" viewBox="0 0 375 374.999991" height="500" preserveAspectRatio="xMidYMid meet" version="1.0"><path fill="#ffffff" d="M 113.457031 337.246094 C 113.757812 337.699219 114.132812 338.074219 114.507812 338.375 C 114.207031 338.074219 113.90625 337.699219 113.457031 337.246094 Z M 299.1875 145.640625 C 291.507812 146.320312 286.917969 144.210938 285.484375 139.238281 C 287.066406 135.855469 289.851562 135.25 293.84375 137.433594 C 297.683594 139.46875 299.414062 142.253906 299.1875 145.640625 Z M 281.042969 132.617188 C 273.289062 129.378906 267.265625 127.421875 262.972656 126.894531 C 259.136719 126.292969 259.664062 125.992188 264.558594 125.992188 C 268.921875 125.839844 272.234375 125.917969 274.421875 126.21875 C 281.042969 126.667969 288.34375 128.550781 296.25 131.9375 C 295.574219 132.089844 293.015625 131.9375 288.796875 131.484375 C 285.257812 131.183594 282.699219 131.5625 281.042969 132.617188 Z M 272.460938 141.199219 C 261.847656 136.757812 257.027344 134.648438 257.929688 134.800781 C 260.113281 133.894531 265.914062 134.875 275.324219 137.660156 C 275.171875 137.960938 274.492188 138.414062 273.367188 139.015625 C 272.613281 139.542969 272.3125 140.292969 272.460938 141.199219 Z M 273.816406 150.007812 C 273.515625 152.640625 271.40625 153.847656 267.644531 153.546875 C 264.257812 153.394531 261.242188 152.417969 258.53125 150.6875 C 258.53125 150.6875 260.714844 150.835938 264.929688 151.136719 C 267.871094 151.4375 269.675781 150.535156 270.277344 148.5 C 269.523438 147.296875 267.117188 146.089844 262.972656 144.964844 C 265.460938 144.210938 267.945312 144.359375 270.503906 145.414062 C 272.988281 146.390625 274.117188 147.976562 273.816406 150.007812 Z M 279.539062 115.152344 C 278.933594 116.203125 278.710938 117.484375 278.859375 118.914062 C 279.914062 119.214844 281.875 119.816406 284.808594 120.71875 C 287.292969 121.25 289.175781 121.851562 290.304688 122.453125 C 290.453125 122.453125 286.164062 122.074219 277.28125 121.320312 C 270.957031 120.71875 265.984375 120.871094 262.296875 121.773438 C 267.644531 118.539062 273.367188 116.355469 279.535156 115.152344 Z M 236.324219 141.199219 C 240.539062 139.84375 244.453125 140.972656 247.996094 144.511719 C 252.511719 149.03125 255.597656 151.664062 257.253906 152.191406 C 254.015625 152.640625 250.476562 151.210938 246.636719 147.824219 C 242.269531 143.835938 238.808594 141.648438 236.324219 141.199219 Z M 242.046875 162.128906 C 242.722656 159.496094 245.65625 157.839844 250.628906 157.085938 C 249.121094 160.472656 249.421875 163.40625 251.53125 165.894531 C 250.027344 166.496094 248.296875 166.347656 246.1875 165.441406 C 244.152344 164.539062 242.722656 163.484375 242.046875 162.128906 Z M 215.996094 157.085938 C 217.351562 157.839844 219.308594 159.117188 221.941406 161.074219 C 225.179688 163.257812 227.4375 164.761719 228.792969 165.664062 C 234.816406 169.355469 240.691406 170.636719 246.410156 169.429688 C 249.652344 172.066406 251.382812 173.570312 251.53125 173.871094 C 238.582031 175.457031 226.761719 169.882812 215.996094 157.085938 Z M 189.949219 146.242188 C 195.144531 152.417969 211.027344 162.355469 237.601562 176.058594 C 230.527344 179.445312 221.71875 177.035156 211.175781 168.753906 C 202.898438 162.582031 195.816406 155.128906 189.949219 146.242188 Z M 223.296875 190.363281 C 220.210938 186.445312 212.382812 182.15625 199.882812 177.5625 C 188.742188 173.347656 181.816406 168.152344 179.183594 162.128906 C 182.417969 167.019531 190.324219 171.164062 202.96875 174.703125 C 215.621094 178.390625 223.601562 182.679688 226.835938 187.5 C 225.933594 187.5 224.730469 188.476562 223.296875 190.363281 Z M 195.746094 179.59375 C 206.285156 180.421875 214.71875 185.242188 221.039062 193.898438 C 216.074219 195.855469 211.40625 194.425781 207.1875 189.683594 C 201.617188 183.511719 197.777344 180.121094 195.746094 179.59375 Z M 210.273438 204.96875 C 199.960938 190.058594 191.078125 181.101562 183.546875 178.015625 C 183.546875 177.5625 183.773438 177.414062 184.226562 177.5625 C 184.675781 177.5625 184.902344 177.714844 184.902344 178.015625 C 195.367188 181.402344 204.253906 187.953125 211.554688 197.664062 C 210.726562 202.632812 210.273438 205.117188 210.273438 204.96875 Z M 207.414062 217.089844 C 206.960938 216.9375 206.359375 216.335938 205.609375 215.28125 C 204.929688 214.453125 204.023438 214.078125 202.96875 214.226562 C 204.175781 212.269531 204.703125 209.183594 204.554688 204.96875 C 206.585938 206.546875 207.566406 210.613281 207.414062 217.089844 Z M 195.746094 222.132812 C 192.054688 214.753906 186.707031 208.730469 179.859375 204.0625 C 182.945312 203.761719 187.839844 206.09375 194.613281 211.140625 C 201.84375 216.410156 202.144531 220.101562 195.746094 222.132812 Z M 189.949219 226.574219 C 184.527344 223.636719 178.652344 217.914062 172.332031 209.558594 C 165.253906 200.148438 159.832031 193.976562 155.992188 191.039062 C 160.734375 192.921875 166.757812 197.964844 174.0625 206.019531 C 181.589844 214.453125 187.839844 219.800781 192.808594 222.132812 C 192.65625 222.582031 192.207031 223.261719 191.300781 224.164062 C 190.550781 224.992188 190.097656 225.820312 189.949219 226.574219 Z M 175.640625 235.15625 C 167.511719 218.367188 163.671875 210.238281 163.972656 210.691406 C 168.1875 211.96875 173.308594 217.765625 179.183594 227.855469 C 179.183594 227.554688 177.976562 230.035156 175.640625 235.15625 Z M 173.457031 258.945312 C 172.707031 259.097656 172.03125 258.796875 171.425781 258.121094 C 170.824219 257.515625 170.070312 257.367188 169.019531 257.667969 C 169.46875 263.238281 172.40625 267.152344 177.828125 269.339844 C 179.03125 269.941406 184.527344 271.296875 194.390625 273.554688 C 196.121094 273.402344 198.679688 273.402344 201.917969 273.554688 C 205.078125 273.855469 204.777344 274.082031 200.789062 274.230469 C 190.625 275.960938 180.386719 274.382812 170.144531 269.5625 C 165.402344 267.378906 162.84375 264.96875 162.390625 262.488281 C 161.636719 259.546875 163.898438 256.6875 169.019531 253.902344 C 168.71875 250.667969 167.058594 248.558594 163.972656 247.503906 C 161.414062 247.804688 160.058594 250.4375 159.757812 255.410156 C 157.722656 252.472656 155.691406 247.128906 153.808594 239.371094 C 151.851562 231.242188 149.96875 225.746094 148.085938 222.808594 C 150.421875 224.691406 152.679688 228.003906 154.863281 232.746094 C 157.574219 238.621094 159.378906 242.308594 160.433594 243.738281 C 162.015625 242.609375 162.242188 240.878906 161.035156 238.695312 C 159.003906 234.707031 158.023438 233.121094 158.175781 233.800781 C 168.640625 240.125 173.683594 248.558594 173.457031 258.945312 Z M 154.714844 267.832031 C 154.9375 275.285156 154.261719 280.554688 152.457031 283.640625 C 150.421875 267.078125 148.914062 257.890625 148.085938 256.085938 C 155.539062 260.378906 159.457031 265.875 159.757812 272.648438 C 159.15625 272.347656 158.402344 271.371094 157.574219 269.789062 C 156.820312 268.433594 155.839844 267.832031 154.714844 267.832031 Z M 145.226562 197.664062 C 150.496094 201.953125 154.636719 206.773438 157.574219 212.195312 C 161.335938 219.269531 162.089844 225.746094 159.757812 231.617188 C 156.820312 229.132812 154.414062 223.488281 152.457031 214.679688 C 150.570312 205.792969 148.164062 200.148438 145.226562 197.664062 Z M 145.226562 239.597656 C 143.71875 238.695312 142.964844 236.511719 142.964844 232.972656 C 142.816406 230.035156 143.117188 227.328125 143.871094 224.992188 C 144.171875 225.597656 144.773438 226.5 145.605469 227.628906 C 146.355469 228.832031 146.960938 229.660156 147.410156 230.113281 C 145.605469 234.328125 144.925781 237.492188 145.226562 239.597656 Z M 142.292969 274.230469 C 143.042969 277.695312 142.59375 282.058594 141.011719 287.179688 C 136.042969 287.480469 133.253906 290.117188 132.804688 295.160156 C 132.804688 296.441406 133.554688 298.847656 135.0625 302.234375 C 135.816406 303.820312 135.0625 303.367188 132.804688 300.882812 C 131.222656 301.632812 130.167969 303.441406 129.792969 306.378906 C 129.644531 307.433594 129.566406 308.863281 129.566406 310.59375 C 129.566406 312.476562 129.492188 313.832031 129.34375 314.585938 C 128.289062 313.378906 127.835938 310.066406 127.988281 304.644531 C 126.933594 305.777344 125.726562 308.410156 124.222656 312.328125 C 122.941406 316.015625 121.511719 318.425781 120.082031 319.628906 C 117.144531 315.636719 116.84375 311.34375 119.179688 306.605469 C 119.933594 305.324219 121.136719 303.289062 122.941406 300.65625 C 124.976562 297.871094 126.402344 295.835938 127.082031 294.480469 C 130.320312 288.910156 132.203125 282.210938 132.652344 274.382812 C 132.953125 271.597656 132.953125 267.753906 132.804688 262.710938 C 132.804688 255.9375 132.804688 251.34375 132.804688 248.859375 C 139.730469 253.078125 144.097656 260.832031 145.828125 271.972656 C 145.980469 272.875 145.527344 273.25 144.550781 273.101562 C 143.34375 273.101562 142.59375 273.476562 142.292969 274.230469 Z M 137.921875 293.578125 C 137.921875 291.394531 138.226562 290.039062 138.828125 289.4375 C 142.441406 290.417969 144.625 294.480469 145.226562 301.558594 C 145.226562 301.558594 144.398438 299.527344 142.742188 295.613281 C 141.761719 293.203125 140.105469 292.601562 137.921875 293.578125 Z M 103.292969 196.984375 C 104.34375 196.234375 106.003906 195.632812 108.335938 195.03125 C 110.894531 194.277344 112.550781 193.675781 113.457031 193.222656 C 118.425781 187.5 120.835938 185.089844 120.683594 185.992188 C 129.566406 183.433594 136.265625 178.691406 141.011719 171.613281 C 145 170.035156 151.472656 166.417969 160.433594 160.847656 C 159.679688 163.03125 157.421875 164.988281 153.582031 166.796875 C 148.539062 169.128906 145.527344 170.785156 144.550781 171.613281 C 143.644531 172.367188 141.988281 174.777344 139.429688 178.917969 C 137.546875 182.003906 135.363281 183.660156 132.804688 183.960938 C 132.429688 184.414062 131.222656 185.921875 129.34375 188.402344 C 127.6875 190.285156 126.253906 191.71875 124.898438 192.621094 C 123.316406 192.320312 121.058594 192.394531 118.273438 192.773438 C 115.488281 193.222656 113.90625 193.375 113.457031 193.222656 C 113.984375 196.460938 116.691406 198.71875 121.359375 199.847656 C 127.535156 201.351562 131.148438 202.484375 132.203125 203.386719 C 120.304688 204.140625 110.671875 202.03125 103.292969 196.984375 Z M 116.316406 277.09375 C 114.507812 277.542969 112.027344 280.707031 108.785156 286.578125 C 106.304688 291.246094 103.066406 292.449219 99.074219 290.117188 C 98.246094 290.191406 96.890625 291.320312 95.160156 293.355469 C 93.808594 294.859375 92.148438 295.234375 90.265625 294.480469 C 93.355469 290.945312 96.289062 284.847656 99.074219 276.1875 C 102.3125 266.476562 104.949219 260 107.054688 256.765625 C 109.390625 258.570312 113.457031 264.59375 119.179688 274.832031 C 116.542969 273.855469 114.8125 273.402344 114.058594 273.554688 C 113.378906 274.304688 114.132812 275.4375 116.316406 277.09375 Z M 86.050781 300.203125 C 84.320312 300.355469 83.566406 299.375 83.867188 297.34375 C 81.082031 299.148438 79.199219 302.011719 78.148438 305.925781 C 76.792969 305.699219 74.90625 305.777344 72.425781 306.378906 C 70.316406 306.679688 68.886719 306.527344 67.984375 305.925781 C 67.832031 303.289062 69.5625 301.410156 73.101562 300.203125 C 82.058594 289.964844 88.988281 282.964844 94.03125 279.273438 C 93.878906 281.308594 92.601562 284.617188 90.265625 289.214844 C 87.78125 293.730469 86.355469 297.417969 86.050781 300.203125 Z M 113.457031 228.757812 C 112.402344 229.210938 111.121094 228.832031 109.691406 227.628906 C 107.882812 226.5 107.054688 225.144531 107.054688 223.710938 C 106.90625 223.5625 107.808594 223.5625 109.917969 223.710938 C 111.800781 226.953125 113.003906 228.609375 113.457031 228.757812 Z M 99.074219 207.828125 C 101.183594 205.042969 103.96875 204.363281 107.507812 205.792969 C 110.292969 206.847656 112.777344 208.65625 114.960938 211.367188 C 113.832031 211.515625 111.496094 210.839844 108.109375 209.335938 C 104.722656 207.75 101.710938 207.226562 99.074219 207.828125 Z M 96.890625 195.480469 C 97.195312 194.878906 98.097656 194.050781 99.527344 192.996094 C 100.730469 192.167969 101.5625 191.265625 101.9375 190.363281 C 100.507812 188.476562 98.171875 187.875 94.933594 188.628906 C 91.699219 189.230469 89.664062 190.511719 88.988281 192.621094 C 89.0625 187.574219 93.277344 184.867188 101.5625 184.414062 C 111.800781 183.8125 117.445312 183.210938 118.5 182.457031 C 119.855469 183.585938 118.347656 185.84375 114.058594 189.082031 C 109.539062 192.46875 103.820312 194.578125 96.890625 195.480469 Z M 76.5625 222.132812 C 77.167969 223.636719 79.351562 225.066406 82.964844 226.574219 C 82.8125 226.574219 78.824219 226.121094 70.84375 225.21875 C 65.121094 224.613281 61.734375 226.046875 60.753906 229.433594 C 59.851562 228.832031 59.699219 227.855469 60.300781 226.574219 C 60.453125 226.273438 60.679688 225.746094 60.90625 224.992188 C 61.207031 224.242188 61.355469 223.863281 61.355469 223.710938 C 63.617188 223.410156 65.796875 223.410156 67.984375 223.710938 C 67.984375 220.175781 71.070312 218.214844 77.242188 217.914062 C 83.566406 217.691406 87.480469 219.269531 88.988281 222.808594 C 88.835938 222.960938 86.878906 222.433594 83.191406 221.230469 C 80.101562 220.402344 77.917969 220.703125 76.5625 222.132812 Z M 48.332031 232.972656 C 47.503906 233.273438 46.976562 232.972656 46.828125 232.070312 C 46.675781 230.863281 46.449219 230.261719 46.148438 230.113281 C 45.546875 230.261719 44.792969 230.488281 43.738281 230.941406 C 42.683594 231.394531 41.933594 231.617188 41.328125 231.617188 C 43.816406 214.980469 51.722656 201.804688 65.121094 191.941406 C 64.519531 192.921875 64.742188 193.824219 65.796875 194.578125 C 66.851562 195.179688 67.53125 194.953125 67.984375 193.898438 C 68.285156 194.351562 68.585938 195.179688 68.886719 196.308594 C 69.1875 197.363281 69.640625 198.039062 70.164062 198.339844 C 72.425781 198.792969 74.457031 198.417969 76.339844 197.210938 C 78.898438 195.78125 80.628906 194.953125 81.683594 194.804688 C 79.878906 195.707031 79.351562 196.835938 79.878906 198.339844 C 80.480469 199.773438 82.058594 200.296875 84.546875 199.847656 C 83.191406 201.203125 82.589844 203.007812 82.589844 205.417969 C 82.738281 208.050781 83.867188 209.558594 86.050781 210.011719 C 73.328125 215.132812 65.796875 218.96875 63.617188 221.453125 C 64.140625 221.753906 64.894531 220.324219 65.796875 217.089844 C 61.960938 217.691406 58.644531 219.949219 55.863281 223.9375 C 51.871094 229.210938 49.386719 232.21875 48.332031 232.972656 Z M 57.21875 233.800781 C 54.808594 235.007812 52.847656 235.460938 51.269531 235.15625 C 53.453125 235.15625 54.582031 233.953125 54.730469 231.617188 C 54.882812 228.984375 55.410156 227.476562 56.3125 227.175781 C 56.917969 227.777344 57.21875 230.035156 57.21875 233.800781 Z M 41.328125 236.664062 C 41.78125 235.382812 42.613281 234.707031 43.96875 234.707031 C 45.394531 234.855469 46.148438 235.761719 46.148438 237.339844 C 42.761719 236.886719 41.179688 236.664062 41.328125 236.664062 Z M 45.472656 249.6875 C 43.890625 248.859375 42.683594 247.351562 41.933594 245.320312 C 41.105469 242.984375 41.105469 240.804688 41.933594 238.921875 C 44.34375 239.070312 45.621094 240.277344 45.921875 242.683594 C 45.921875 242.683594 45.773438 245.019531 45.472656 249.6875 Z M 86.050781 180.199219 C 84.621094 180.199219 83.34375 178.765625 82.359375 175.828125 C 81.457031 173.195312 81.007812 170.335938 81.007812 167.25 C 81.15625 167.398438 82.8125 171.691406 86.050781 180.199219 Z M 65.796875 150.6875 C 76.792969 154.074219 83.566406 160.320312 86.050781 169.429688 C 84.621094 166.347656 81.308594 163.105469 76.191406 159.71875 C 70.691406 156.183594 67.230469 153.167969 65.796875 150.6875 Z M 44.191406 118.914062 C 46.523438 118.613281 49.234375 119.515625 52.324219 121.550781 C 53.078125 122 54.429688 122.976562 56.3125 124.410156 C 57.894531 125.464844 59.175781 126.292969 60.078125 126.894531 C 57.667969 129.828125 56.464844 130.960938 56.3125 130.359375 C 57.667969 135.101562 62.710938 140.898438 71.519531 147.824219 C 66.25 146.921875 61.132812 142.855469 56.3125 135.703125 C 49.988281 125.992188 45.921875 120.417969 44.191406 118.914062 Z M 244.90625 112.289062 C 245.054688 111.835938 245.207031 111.761719 245.355469 112.0625 C 245.65625 112.363281 245.734375 112.742188 245.585938 113.191406 C 231.882812 120.570312 222.019531 128.476562 215.996094 136.980469 C 215.996094 136.980469 213.363281 136.679688 208.089844 136.15625 C 216.449219 127.570312 228.71875 119.667969 244.90625 112.289062 Z M 264.558594 185.992188 C 261.621094 187.125 258.230469 187.652344 254.394531 187.5 C 250.402344 187.199219 247.464844 186.296875 245.585938 184.640625 C 246.5625 184.789062 249.421875 185.015625 254.164062 185.316406 C 259.136719 185.46875 262.597656 185.691406 264.558594 185.992188 Z M 96.890625 330.46875 C 96.441406 330.621094 95.6875 331.222656 94.710938 332.425781 C 93.808594 333.632812 93.277344 334.160156 93.128906 334.160156 C 91.398438 333.78125 90.191406 331.523438 89.589844 327.605469 C 90.34375 327.605469 91.019531 327.757812 91.621094 328.210938 C 92.300781 328.660156 92.824219 328.964844 93.128906 329.113281 C 94.03125 328.8125 95.613281 327.605469 98.023438 325.574219 C 100.507812 323.542969 102.238281 322.261719 103.292969 321.8125 C 104.042969 321.507812 104.648438 321.4375 105.25 321.585938 C 106.003906 321.585938 105.550781 321.886719 103.96875 322.492188 C 104.722656 323.84375 105.175781 325.878906 105.476562 328.660156 C 105.777344 331.449219 106.527344 333.78125 107.734375 335.511719 C 106.828125 335.363281 105.023438 334.234375 102.386719 332.203125 C 100.355469 330.769531 98.472656 330.167969 96.890625 330.46875 Z M 86.726562 329.113281 C 85.75 328.660156 83.945312 326.933594 81.457031 323.84375 C 79.578125 321.4375 76.941406 320.605469 73.703125 321.207031 C 75.8125 318.648438 78.671875 318.648438 82.359375 321.207031 C 85.976562 323.84375 87.480469 326.480469 86.726562 329.113281 Z M 62.261719 329.792969 C 61.207031 329.792969 60.753906 329.039062 60.753906 327.605469 C 60.605469 326.253906 60.753906 325.273438 61.355469 324.671875 C 68.886719 325.125 74.15625 326.101562 77.246094 327.605469 C 76.414062 327.683594 73.402344 327.535156 68.433594 326.933594 C 65.347656 326.628906 63.316406 327.605469 62.261719 329.792969 Z M 57.21875 321.8125 C 57.742188 317.59375 55.109375 315.636719 49.234375 316.089844 C 47.503906 313.605469 45.019531 311.875 41.78125 310.820312 C 38.09375 309.765625 35.308594 310.59375 33.351562 313.230469 C 33.652344 309.386719 34.929688 307.355469 37.113281 307.054688 C 38.621094 306.753906 41.027344 307.433594 44.417969 309.011719 C 52.625 312.851562 58.042969 313.53125 60.753906 311.042969 C 60.300781 314.285156 60.53125 317.445312 61.355469 320.53125 C 58.121094 321.4375 56.765625 321.8125 57.21875 321.8125 Z M 17.242188 311.722656 C 16.410156 308.484375 18.292969 307.054688 23.035156 307.507812 C 27.855469 307.960938 30.261719 309.617188 30.261719 312.550781 C 28.230469 311.121094 26.121094 310.140625 23.863281 309.691406 C 20.628906 309.085938 18.445312 309.765625 17.242188 311.722656 Z M 318.535156 113.867188 C 321.925781 111.761719 327.269531 108.824219 334.421875 104.988281 C 341.648438 101.222656 346.996094 98.210938 350.535156 95.949219 C 362.730469 88.648438 370.9375 80.820312 375.003906 72.613281 C 350.15625 89.476562 330.582031 98.660156 316.355469 100.167969 C 337.359375 90.152344 356.40625 73.96875 373.496094 51.605469 C 340.972656 74.421875 321.921875 86.691406 316.355469 88.496094 C 338.5625 68.171875 351.589844 48.671875 355.425781 30 C 332.316406 63.425781 310.40625 84.582031 289.699219 93.542969 C 311.308594 68.546875 323.578125 47.394531 326.519531 30 C 326.21875 30.902344 325.386719 32.257812 324.109375 33.988281 C 322.902344 35.644531 322.300781 37.152344 322.300781 38.65625 C 306.113281 59.210938 296.25 71.410156 292.789062 75.246094 C 280.441406 88.046875 267.339844 96.328125 253.488281 100.167969 C 253.488281 99.566406 254.015625 98.585938 255.070312 97.304688 C 255.597656 96.25 255.597656 95.5 255.070312 95.125 C 253.5625 95.949219 251.683594 97.683594 249.273438 100.167969 C 245.886719 103.554688 243.851562 105.589844 243.097656 106.34375 C 237.980469 111.085938 233.3125 111.835938 229.023438 108.75 C 229.324219 107.769531 230.074219 106.492188 231.203125 104.988281 C 232.40625 103.707031 233.160156 102.5 233.386719 101.523438 C 219.761719 106.039062 201.691406 119.59375 179.183594 142.101562 C 167.285156 153.996094 147.5625 165.96875 120.082031 178.015625 C 107.582031 169.957031 98.171875 162.730469 91.847656 156.40625 C 92.523438 154.824219 94.710938 154.074219 98.246094 154.222656 C 101.710938 154.375 103.667969 155.277344 103.96875 157.085938 C 104.273438 157.839844 104.195312 158.515625 103.742188 159.265625 C 103.292969 160.019531 103.140625 160.773438 103.292969 161.453125 C 108.410156 163.859375 114.285156 163.257812 120.910156 159.71875 C 122.414062 158.964844 125.125 157.386719 129.113281 154.898438 C 132.351562 152.792969 134.835938 151.4375 136.566406 150.6875 C 134.988281 150.988281 132.203125 151.8125 128.210938 153.09375 C 124.824219 154.296875 122.1875 155.050781 120.304688 155.277344 C 114.359375 156.183594 109.992188 154.449219 107.054688 150.007812 C 101.03125 151.210938 95.386719 150.835938 90.265625 148.953125 C 88.835938 148.351562 86.65625 147.296875 83.867188 145.789062 C 80.933594 144.359375 78.75 143.304688 77.246094 142.703125 C 68.738281 139.238281 64.140625 136.53125 63.617188 134.800781 C 64.292969 134.195312 65.496094 133.894531 67.082031 133.894531 C 68.886719 133.894531 70.164062 134.195312 70.84375 134.800781 C 68.207031 130.128906 63.617188 125.539062 56.988281 121.097656 C 46.375 114.246094 40.878906 110.632812 40.425781 110.332031 C 42.613281 110.933594 46.601562 111.6875 52.324219 112.742188 C 57.519531 113.644531 60.980469 114.398438 62.9375 115.152344 C 58.34375 109.429688 52.546875 105.8125 45.472656 104.382812 C 45.921875 104.535156 44.34375 104.609375 40.652344 104.609375 C 38.769531 104.609375 37.492188 103.855469 36.890625 102.351562 C 37.191406 100.769531 38.546875 99.640625 40.878906 99.039062 C 45.699219 98.058594 47.804688 97.683594 47.054688 97.984375 C 45.847656 96.929688 42.914062 95.5 38.246094 93.542969 C 38.546875 93.242188 40.957031 91.285156 45.472656 87.59375 C 48.558594 85.109375 50.066406 82.777344 49.914062 80.519531 C 47.277344 83 44.34375 84.808594 41.105469 85.863281 C 37.113281 87.292969 33.804688 86.992188 31.164062 84.960938 C 31.617188 84.054688 32.371094 82.929688 33.351562 81.421875 C 34.859375 79.6875 35.683594 78.484375 35.984375 77.882812 C 38.09375 74.796875 38.621094 71.859375 37.566406 69.074219 C 36.664062 71.109375 35.160156 72.835938 32.898438 74.121094 C 30.5625 75.472656 28.304688 75.699219 26.121094 74.796875 C 26.121094 72.464844 27.855469 69.601562 31.394531 66.214844 C 34.480469 63.425781 35.382812 60.265625 34.027344 56.726562 C 33.125 59.8125 30.640625 62.523438 26.5 64.859375 C 21.832031 67.792969 19.046875 69.976562 18.144531 71.257812 C 17.84375 71.558594 17.164062 73.214844 16.1875 76.152344 C 15.433594 78.03125 14.152344 79.3125 12.421875 79.839844 C 11.367188 77.207031 11.441406 74.121094 12.644531 70.578125 C 14.226562 66.214844 15.132812 63.277344 15.28125 61.769531 C 14.832031 62.671875 11.59375 66.738281 5.570312 73.890625 C 1.582031 78.632812 -0.00390625 83.980469 0.75 90.003906 C 1.429688 96.328125 3.6875 101.671875 7.378906 105.890625 C 9.109375 108.148438 12.796875 110.859375 18.367188 114.097656 C 24.089844 117.484375 28.082031 120.269531 30.261719 122.453125 C 32.597656 124.9375 35.382812 128.851562 38.46875 134.125 C 41.859375 139.992188 44.417969 144.058594 46.148438 146.242188 C 47.65625 148.050781 50.214844 150.835938 53.902344 154.675781 C 57.289062 158.289062 59.777344 161.300781 61.355469 163.484375 C 66.851562 170.710938 69.488281 178.464844 69.339844 186.824219 C 58.875 192.320312 50.96875 200.449219 45.472656 211.367188 C 39.449219 223.5625 38.320312 236.363281 41.933594 249.6875 C 45.773438 252.09375 49.160156 253.753906 52.097656 254.804688 C 52.097656 253.753906 51.796875 252.625 51.269531 251.492188 C 50.667969 250.4375 50.441406 249.3125 50.589844 248.179688 C 57.742188 234.175781 69.113281 228.457031 84.546875 230.941406 C 85.75 232.746094 89.363281 235.910156 95.539062 240.425781 C 100.429688 244.117188 102.988281 247.878906 103.292969 251.722656 C 103.441406 254.203125 102.464844 257.742188 100.429688 262.257812 C 98.246094 267.304688 97.042969 271.296875 96.890625 274.230469 C 94.410156 275.808594 88.160156 281.835938 78.148438 292.300781 C 70.769531 299.902344 63.316406 304.722656 55.636719 306.605469 C 56.085938 307.054688 57.140625 307.355469 58.722656 307.507812 C 60.378906 307.65625 61.207031 308.109375 61.355469 308.863281 C 60.078125 309.691406 57.21875 310.671875 52.777344 311.722656 C 49.535156 308.785156 45.921875 306.679688 41.933594 305.550781 C 36.664062 303.894531 33.050781 305.023438 31.164062 308.863281 C 23.1875 305.023438 17.917969 304.796875 15.28125 308.183594 C 14.980469 310.519531 15.507812 312.628906 16.863281 314.585938 C 17.089844 315.035156 17.691406 315.714844 18.59375 316.769531 C 19.347656 317.671875 19.949219 318.347656 20.324219 318.949219 C 21.378906 318.949219 22.054688 318.199219 22.359375 316.542969 C 22.808594 314.808594 23.488281 313.90625 24.542969 313.90625 C 25.296875 314.507812 27.402344 314.886719 30.941406 315.035156 C 34.027344 315.109375 35.761719 316.015625 36.210938 317.671875 C 35.910156 318.125 34.929688 318.574219 33.125 319.175781 C 31.695312 319.628906 31.015625 320.53125 31.164062 321.8125 C 31.164062 322.714844 32.296875 324.222656 34.480469 326.253906 C 36.664062 328.4375 37.941406 330.394531 38.246094 331.976562 C 39.824219 330.769531 40.125 329.566406 39.070312 328.210938 C 37.640625 326.328125 36.890625 324.898438 36.890625 324.070312 C 37.191406 321.136719 40.050781 319.550781 45.472656 319.402344 C 50.816406 319.25 54.203125 320.304688 55.636719 322.492188 C 55.785156 324.144531 55.257812 326.328125 54.128906 329.113281 C 60.980469 322.941406 64.671875 319.101562 65.121094 317.671875 C 65.273438 316.917969 64.746094 316.617188 63.617188 316.769531 C 62.410156 316.917969 61.960938 316.691406 62.261719 316.089844 C 68.738281 310.972656 75.960938 309.992188 83.867188 313.230469 C 86.503906 309.390625 87.933594 307.507812 88.082031 307.507812 C 88.386719 308.109375 88.234375 309.164062 87.632812 310.820312 C 87.179688 311.949219 87.332031 312.777344 88.082031 313.230469 C 88.535156 312.628906 89.0625 311.273438 89.816406 309.011719 C 90.417969 307.28125 91.097656 306 91.847656 305.324219 C 92 305.324219 92.453125 305.699219 93.355469 306.378906 C 93.808594 306.832031 94.03125 306.453125 94.03125 305.324219 C 93.878906 304.875 93.65625 304.269531 93.355469 303.519531 C 93.054688 302.613281 92.824219 302.085938 92.675781 301.785156 C 92.375 300.429688 92.824219 299.453125 94.03125 298.699219 C 91.246094 298.847656 92.222656 302.539062 96.890625 309.691406 C 97.644531 308.9375 98.324219 306.53125 98.851562 302.464844 C 99.152344 299.074219 100.429688 297.34375 102.617188 297.34375 C 102.917969 298.097656 102.765625 299.226562 102.164062 300.65625 C 101.710938 301.863281 101.863281 302.613281 102.617188 303.066406 C 102.917969 302.464844 103.519531 300.808594 104.421875 298.023438 C 105.097656 295.988281 106.003906 294.480469 107.054688 293.578125 C 107.660156 293.425781 108.109375 293.65625 108.5625 294.257812 C 109.015625 294.859375 109.464844 295.160156 109.917969 295.160156 C 110.21875 292.375 110.894531 290.417969 111.875 289.4375 C 111.574219 289.4375 112.851562 290.792969 115.636719 293.578125 C 116.542969 292.75 118.199219 289.816406 120.683594 284.769531 C 122.792969 280.929688 124.898438 278.371094 127.082031 277.09375 C 127.988281 277.394531 128.964844 278.597656 129.945312 280.78125 C 129.566406 286.425781 124.746094 295.3125 115.636719 307.507812 C 106.828125 319.101562 97.644531 325.125 88.082031 325.574219 C 85.976562 321.359375 82.4375 317.972656 77.242188 315.410156 C 72.875 318.800781 70.164062 321.660156 69.339844 324.070312 C 65.347656 323.167969 62.488281 323.167969 60.753906 324.070312 C 61.28125 323.015625 61.054688 327.835938 60.078125 338.601562 C 61.355469 338.601562 61.582031 338.074219 60.753906 337.097656 C 62.9375 328.511719 72.574219 327.984375 89.589844 335.511719 C 89.589844 338.300781 89.589844 339.804688 89.589844 339.957031 C 91.246094 339.957031 92.675781 338.976562 94.03125 337.097656 C 95.3125 335.136719 96.742188 334.160156 98.246094 334.160156 C 100.128906 334.761719 101.5625 336.492188 102.617188 339.277344 C 106.90625 339.128906 109.539062 339.203125 110.59375 339.503906 C 112.929688 340.257812 113.90625 342.0625 113.457031 345 C 115.1875 344.851562 116.390625 343.417969 116.992188 340.558594 C 116.238281 340.03125 115.414062 339.277344 114.507812 338.375 C 115.867188 340.257812 116.015625 341.761719 114.960938 342.816406 C 112.027344 338.824219 110.820312 336.945312 111.195312 337.097656 C 111.800781 336.644531 112.550781 336.71875 113.457031 337.246094 C 110.671875 334.160156 109.164062 331.222656 109.015625 328.4375 C 108.863281 324.898438 111.046875 322.492188 115.636719 321.207031 C 115.9375 321.359375 117.144531 323.996094 119.179688 329.113281 C 121.359375 325.425781 123.09375 323.542969 124.222656 323.394531 C 125.277344 323.542969 125.953125 324.597656 126.253906 326.480469 C 126.703125 328.359375 127.234375 329.492188 127.988281 329.792969 C 128.4375 327.984375 129.644531 326.855469 131.523438 326.253906 C 133.707031 327.609375 134.160156 328.289062 132.804688 328.4375 C 132.953125 326.855469 133.632812 324.75 134.835938 322.261719 C 136.042969 319.929688 136.566406 317.894531 136.566406 316.089844 C 137.320312 316.089844 137.773438 316.84375 137.921875 318.347656 C 138.074219 319.78125 138.601562 320.53125 139.429688 320.53125 C 139.429688 319.476562 139.128906 317.746094 138.375 315.1875 C 137.621094 313.304688 137.472656 311.949219 137.921875 311.042969 C 138.976562 311.34375 139.882812 312.175781 140.785156 313.683594 C 141.6875 315.410156 142.363281 316.464844 142.964844 316.769531 C 143.570312 310.894531 143.871094 308.035156 143.871094 308.183594 C 144.472656 307.882812 145.304688 308.335938 146.28125 309.464844 C 146.882812 310.367188 147.261719 310.140625 147.410156 308.863281 C 149.140625 306.753906 148.914062 304.34375 146.730469 301.558594 C 146.582031 300.808594 147.109375 300.355469 148.3125 300.203125 C 149.441406 300.203125 150.121094 299.976562 150.269531 299.527344 C 149.066406 299.527344 148.390625 298.625 148.085938 296.667969 C 147.785156 294.933594 148.3125 293.878906 149.59375 293.578125 C 150.195312 293.878906 150.796875 294.933594 151.402344 296.667969 C 151.773438 298.171875 152.605469 298.847656 153.808594 298.699219 C 153.808594 298.398438 153.507812 297.644531 152.90625 296.441406 C 152.457031 295.160156 152.152344 294.179688 152.003906 293.578125 C 151.324219 291.246094 151.703125 289.664062 153.128906 288.761719 C 153.882812 289.0625 154.5625 290.265625 155.089844 292.523438 C 155.539062 294.410156 156.371094 295.535156 157.574219 295.835938 C 157.875 294.933594 157.800781 293.503906 157.347656 291.621094 C 156.894531 290.117188 156.972656 289.214844 157.574219 288.761719 C 157.875 288.761719 158.023438 288.984375 158.175781 289.4375 C 158.476562 289.890625 158.703125 290.117188 158.855469 290.117188 C 159.003906 289.515625 159.15625 288.535156 159.304688 287.179688 C 159.605469 286.050781 159.757812 285.148438 159.757812 284.546875 C 160.359375 282.511719 161.261719 281.230469 162.621094 280.78125 C 164.652344 281.683594 166.757812 281.683594 168.789062 280.78125 C 169.242188 280.628906 170.144531 280.328125 171.425781 279.726562 C 172.480469 279.125 173.382812 278.75 174.0625 278.597656 C 182.191406 280.105469 189.195312 282.4375 195.066406 285.671875 C 195.367188 285.671875 195.445312 285.070312 195.292969 283.867188 C 194.992188 282.738281 195.445312 282.136719 196.570312 282.136719 C 200.410156 281.683594 205.230469 283.339844 211.175781 286.953125 C 216.296875 290.191406 220.738281 291.019531 224.578125 289.4375 C 224.128906 289.289062 223.375 289.0625 222.171875 288.761719 C 221.117188 288.460938 220.363281 288.234375 219.761719 288.082031 C 218.105469 287.328125 217.425781 286.125 217.503906 284.316406 C 220.363281 284.015625 225.03125 285.671875 231.65625 289.214844 C 237.679688 292.449219 243.324219 293.203125 248.667969 291.621094 C 246.109375 291.773438 244.453125 290.492188 243.550781 287.859375 C 246.941406 288.460938 252.207031 287.257812 259.4375 284.316406 C 259.285156 284.167969 258.984375 284.015625 258.53125 283.867188 C 258.007812 283.640625 257.554688 283.414062 257.253906 283.265625 C 256.351562 282.8125 256.351562 282.4375 257.253906 282.136719 C 258.308594 282.886719 259.585938 283.113281 261.242188 282.8125 C 262.972656 282.359375 264.105469 281.683594 264.558594 280.78125 C 263.351562 280.628906 262.449219 279.726562 261.847656 277.917969 C 261.167969 276.039062 260.339844 274.984375 259.4375 274.832031 C 265.761719 274.15625 269.824219 272.421875 271.558594 269.789062 C 269.824219 269.1875 266.738281 269.261719 262.296875 270.015625 C 257.78125 270.617188 254.617188 270.542969 252.8125 269.789062 C 253.113281 269.339844 254.242188 269.109375 256.125 269.109375 C 258.082031 269.261719 259.136719 269.035156 259.4375 268.433594 C 258.15625 267.984375 257.855469 267.304688 258.53125 266.25 C 267.566406 263.765625 272.835938 261.355469 274.421875 258.945312 C 259.285156 262.789062 243.175781 264.292969 226.160156 263.390625 C 209.671875 262.488281 197.324219 260.527344 189.117188 257.441406 C 176.996094 252.847656 171.050781 245.472656 171.199219 235.15625 C 171.953125 235.460938 172.632812 236.0625 173.234375 236.886719 C 173.910156 237.941406 174.4375 238.621094 174.738281 238.921875 C 176.695312 238.46875 178.429688 236.511719 180.007812 232.972656 C 181.515625 229.886719 183.398438 228.15625 185.804688 227.855469 C 186.9375 227.855469 187.992188 228.230469 188.894531 228.984375 C 190.171875 230.1875 191.078125 230.789062 191.527344 230.941406 C 192.582031 227.175781 194.992188 225.445312 198.757812 225.898438 C 201.011719 221.753906 203.121094 219.347656 205.15625 218.59375 C 205.609375 218.59375 206.058594 218.894531 206.511719 219.5 C 206.8125 220.101562 207.339844 220.25 208.089844 219.949219 C 213.664062 213.625 215.542969 210.539062 213.8125 210.691406 C 215.84375 212.417969 216.523438 215.28125 215.769531 219.269531 C 215.167969 223.261719 213.585938 225.445312 210.953125 225.898438 C 209.746094 226.199219 208.617188 225.667969 207.640625 224.3125 C 206.734375 223.1875 205.910156 222.960938 205.15625 223.710938 C 202.367188 231.015625 205.308594 235.910156 214.039062 238.242188 C 226.386719 241.78125 233.085938 244.117188 234.066406 245.320312 C 233.085938 242.683594 229.925781 240.050781 224.578125 237.566406 C 219.460938 235.382812 216.597656 232.898438 215.996094 230.113281 C 215.695312 228.609375 216.144531 226.574219 217.351562 223.9375 C 218.78125 220.703125 219.609375 218.367188 219.761719 217.089844 C 219.609375 217.238281 218.328125 210.992188 215.996094 198.339844 C 218.628906 197.890625 221.039062 197.890625 223.296875 198.339844 C 218.105469 210.238281 234.96875 211.214844 273.816406 201.203125 C 264.558594 199.695312 259.210938 196.308594 257.929688 191.039062 C 258.757812 188.554688 261.242188 187.652344 265.160156 188.402344 C 266.214844 188.707031 267.71875 189.15625 269.601562 189.683594 C 271.027344 190.132812 272.011719 190.363281 272.460938 190.363281 C 270.578125 186.523438 265.234375 183.960938 256.574219 182.679688 C 246.863281 181.175781 240.839844 179.445312 238.503906 177.335938 C 243.175781 173.421875 250.402344 174.324219 260.113281 180.199219 C 260.113281 178.765625 258.53125 174.925781 255.449219 168.753906 C 253.261719 164.539062 253.863281 161.375 257.253906 159.265625 C 257.105469 159.117188 258.984375 160.699219 262.972656 163.9375 C 265.308594 165.816406 266.515625 168.152344 266.515625 170.9375 C 266.664062 171.539062 266.0625 171.765625 264.707031 171.613281 C 263.578125 171.613281 263.203125 172.066406 263.652344 172.96875 C 265.683594 177.488281 271.027344 180.648438 279.765625 182.457031 C 291.054688 184.640625 297.757812 186.371094 299.792969 187.5 C 298.207031 185.316406 294.671875 183.359375 289.25 181.554688 C 283.527344 179.671875 279.839844 177.789062 278.183594 176.058594 C 277.582031 172.214844 275.246094 168.679688 271.105469 165.441406 C 266.289062 161.753906 263.351562 158.964844 262.296875 157.085938 C 264.40625 156.933594 266.515625 157.386719 268.695312 158.363281 C 271.027344 159.566406 272.988281 160.171875 274.417969 160.171875 C 275.625 160.171875 279.386719 159.042969 285.710938 156.855469 C 289.699219 155.351562 292.714844 156.183594 294.746094 159.265625 C 294.746094 155.730469 292.714844 153.167969 288.574219 151.589844 C 283.453125 149.480469 280.367188 147.746094 279.535156 146.242188 C 281.421875 143.757812 283.90625 143.230469 286.992188 144.738281 C 287.441406 145.039062 288.722656 145.789062 290.753906 147.144531 C 292.410156 148.199219 293.691406 148.800781 294.746094 149.101562 C 296.476562 149.707031 298.886719 150.085938 301.824219 150.234375 C 305.359375 150.386719 307.546875 150.535156 308.449219 150.6875 C 304.15625 146.394531 301.824219 142.78125 301.371094 139.84375 C 303.703125 139.316406 306.867188 140.371094 310.859375 143.15625 C 314.847656 146.089844 318.085938 147.144531 320.796875 146.242188 C 315.75 144.964844 313.867188 143.230469 315 141.199219 C 315.300781 141.199219 320.570312 141.800781 330.660156 142.929688 C 337.433594 143.683594 342.328125 142.628906 345.261719 139.84375 C 326.289062 142.402344 314.921875 139.238281 311.308594 130.359375 C 311.683594 130.207031 312.210938 129.980469 312.8125 129.757812 C 313.414062 129.453125 313.945312 129.226562 314.398438 129.078125 C 317.480469 132.015625 321.699219 133.140625 327.195312 132.617188 C 332.464844 132.164062 336.605469 130.429688 339.539062 127.496094 C 329.980469 129.757812 322.222656 128.550781 316.355469 123.960938 C 342.25 119.59375 361.523438 110.179688 374.171875 95.726562 C 354.597656 103.855469 343.984375 108 342.402344 108.070312 C 341.347656 112.0625 338.1875 114.019531 332.917969 113.867188 C 324.109375 113.71875 319.289062 113.71875 318.535156 113.867188 Z M 104.796875 270.691406 C 105.398438 271.820312 105.398438 274.082031 104.796875 277.316406 C 104.273438 280.554688 104.273438 282.664062 104.796875 283.640625 C 106.003906 282.210938 106.753906 279.953125 107.054688 276.863281 C 107.359375 273.628906 106.605469 271.519531 104.796875 270.691406 Z M 116.992188 143.382812 C 120.304688 143.382812 124.746094 141.273438 130.167969 136.984375 C 135.816406 132.464844 140.558594 129.980469 144.550781 129.757812 C 146.582031 129.605469 130.769531 132.316406 97.117188 137.886719 C 100.054688 137.734375 103.59375 138.636719 107.734375 140.523438 C 111.949219 142.480469 115.035156 143.382812 116.992188 143.382812 Z M 93.128906 138.335938 C 94.332031 138.1875 95.613281 138.035156 97.117188 137.886719 C 95.765625 137.886719 94.484375 138.035156 93.128906 138.335938 Z M 92.453125 123.960938 C 90.117188 121.773438 85.148438 120.796875 77.46875 121.097656 C 69.714844 121.550781 64.59375 120.796875 62.261719 118.914062 C 71.519531 129.679688 83.039062 133.972656 96.890625 131.9375 C 90.566406 130.128906 87.632812 129.378906 88.082031 129.527344 C 85 128.324219 83.265625 126.21875 82.964844 123.128906 C 84.320312 122.226562 86.050781 122.226562 88.308594 123.128906 C 90.492188 124.109375 91.921875 124.410156 92.453125 123.960938 Z M 88.988281 113.867188 C 98.097656 115.152344 107.734375 113.496094 117.824219 108.75 C 114.433594 110.105469 110.371094 110.332031 105.476562 109.429688 C 99.152344 108.375 95.539062 108 94.710938 108.070312 C 93.507812 108.070312 91.773438 108.523438 89.363281 109.429688 C 87.332031 110.332031 85.523438 110.632812 83.867188 110.332031 C 84.167969 110.332031 79.5 107.167969 70.015625 100.847656 C 63.839844 96.703125 58.042969 97.230469 52.777344 102.351562 C 58.195312 100.617188 64.441406 101.75 71.519531 105.664062 C 80.480469 110.707031 86.277344 113.417969 88.988281 113.867188 Z M 88.988281 113.867188 " fill-opacity="1" fill-rule="nonzero"/></svg>